<svg xmlns="http://www.w3.org/2000/svg" viewBox="0 0 1100 250" width="1100" height="250">
<defs><linearGradient id="g" x1="0" x2="1"><stop stop-color="#050b0d"/><stop offset="1" stop-color="#0b1719"/></linearGradient><linearGradient id="scan" x1="0" x2="1"><stop stop-color="#22d3ee" stop-opacity="0"/><stop offset=".5" stop-color="#67e8f9"/><stop offset="1" stop-color="#22d3ee" stop-opacity="0"/></linearGradient><style>.a{font-family:Inter,Segoe UI,Arial,sans-serif}.m{font-family:Consolas,SFMono-Regular,monospace}</style></defs>
<rect width="1100" height="250" rx="14" fill="url(#g)" stroke="#1c3d43"/><rect x="30" y="30" width="5" height="190" rx="2" fill="#22d3ee"/>
<text x="62" y="56" class="m" font-size="11" letter-spacing="2.5" fill="#70ddec">02  /  EDUCATION  /  PLATFORM</text><text x="62" y="111" class="a" font-size="44" font-weight="800" fill="#f2f6f7">EDUNEX</text><text x="62" y="145" class="a" font-size="16" fill="#a4b6ba">School infrastructure for administration and academic workflows.</text><text x="62" y="184" class="m" font-size="11" letter-spacing="1.3" fill="#789197">FULL-STACK  ·  ATTENDANCE  ·  ADMIN  ·  WORKFLOWS</text><text x="62" y="213" class="m" font-size="10" letter-spacing="2" fill="#22d3ee">PUBLIC  /  IN DEVELOPMENT</text>
<g transform="translate(815 105)"><rect x="0" y="0" width="210" height="90" rx="8" fill="#081215" stroke="#18383f"/><g stroke="#16363d"><path d="M18 28H192M18 48H192M18 68H192"/></g><g fill="#22d3ee"><circle cx="32" cy="28" r="5"><animate attributeName="opacity" values=".2;1;.2" dur="1.4s" repeatCount="indefinite"/></circle><circle cx="32" cy="48" r="5"><animate attributeName="opacity" values=".2;1;.2" dur="1.4s" begin=".3s" repeatCount="indefinite"/></circle><circle cx="32" cy="68" r="5"><animate attributeName="opacity" values=".2;1;.2" dur="1.4s" begin=".6s" repeatCount="indefinite"/></circle></g><rect x="52" y="22" width="120" height="5" rx="2" fill="#28464c"/><rect x="52" y="42" width="92" height="5" rx="2" fill="#28464c"/><rect x="52" y="62" width="140" height="5" rx="2" fill="#28464c"/><rect x="50" y="20" width="4" height="52" fill="url(#scan)"><animate attributeName="y" values="20;68;20" dur="2.6s" repeatCount="indefinite"/></rect></g>
<text x="1015" y="82" text-anchor="end" class="m" font-size="58" fill="#183035">02</text><path d="M815 215H1015" stroke="#214047"/><path d="M1000 208l15 7-15 7" fill="none" stroke="#22d3ee"/><text x="1015" y="198" text-anchor="end" class="m" font-size="10" fill="#5b757b">GITHUB / EDUNEX</text>
</svg>